<svg width="522.6"
     height="125.03229473286646"
     viewBox="0 0 369.89473684210526 88.4974890106739"
     class="css-1j8o68f"
     version="1.1" xmlns="http://www.w3.org/2000/svg">
    <defs id="SvgjsDefs1912"></defs>
    <g id="SvgjsG1913"
       featurekey="v37d4h-0"
       transform="matrix(1.1357953548431396,0,0,1.1357953548431396,-11.079247276507076,-11.566078764141599)"
       fill="#fff">
        <path d="M48.3,88.1c-8.5,0-16.7-3.7-22.3-10.6c-4.4-5.4-8.3-10-11.6-13.8c-3.7-4.2-5.3-9.7-4.4-15.2c0.9-5.5,4.1-10.3,9-13.1h0  l39-22.7c5.3-3.1,11.7-3.3,17.2-0.8c5.5,2.6,9.4,7.7,10.4,13.7l5,30.4c1.3,7.9-2.6,15.7-9.7,19.4c-5.1,2.7-12,6-20.4,9.9  C56.6,87.2,52.4,88.1,48.3,88.1z M20.9,38.8c-3.8,2.2-6.3,5.9-7,10.2c-0.7,4.3,0.6,8.7,3.5,11.9c3.4,3.8,7.3,8.5,11.7,13.9  c7.2,8.8,19.4,11.6,29.7,6.8c8.3-3.9,15.1-7.2,20.2-9.9c5.6-2.9,8.6-9,7.6-15.2l-5-30.4c-0.8-4.8-3.8-8.7-8.1-10.7  c-4.4-2.1-9.3-1.8-13.5,0.6L20.9,38.8L20.9,38.8z">
        </path>
    </g>
    <g id="SvgjsG1914"
       featurekey="UxBHKT-0"
       transform="matrix(2.9656708240509033,0,0,2.9656708240509033,110.1019703269218,1.2986008826952453)"
       fill="#fff">
        <path
              d="M4.88 20 l-3 0 l0 -8.26 l-1.24 0 l0 -2.56 l1.24 0 q0.08 -2.14 1.22 -3.26 t3.16 -1.12 q0.6 0 1.32 0.18 l-0.16 2.42 q-0.38 -0.12 -0.82 -0.12 q-1.08 0 -1.4 0.54 t-0.32 1.36 l1.98 0 l0 2.56 l-1.98 0 l0 8.26 z M11.98 7.369999999999999 q-0.48 0.47 -1.16 0.47 q-0.7 0 -1.19 -0.47 t-0.49 -1.15 q0 -0.66 0.49 -1.13 t1.19 -0.47 q0.68 0 1.16 0.47 t0.48 1.13 q0 0.68 -0.48 1.15 z M9.32 9.02 l3 0 l0 10.98 l-3 0 l0 -10.98 z M31.689999999999998 10.04 q1.13 1.24 1.13 3.46 l0 6.5 l-3.02 0 l0 -6.5 q0 -1.18 -0.59 -1.7 t-1.55 -0.52 q-0.8 0 -1.44 0.6 t-0.66 2 l0 6.12 l-3.02 0 l0 -6.5 q0 -1.18 -0.59 -1.7 t-1.53 -0.52 q-0.86 0 -1.49 0.64 t-0.63 2.26 l-0.02 5.82 l-2.98 0 l0 -11 l2.98 0 l0 1 q0.58 -0.52 1.4 -0.86 t1.5 -0.34 q2.32 0 3.54 1.5 q0.62 -0.7 1.54 -1.1 t2 -0.4 q2.3 0 3.43 1.24 z M44.26 18.9 q-0.38 0.52 -1.31 0.93 t-2.03 0.41 q-1.7 0 -2.95 -0.76 t-1.91 -2.07 t-0.66 -2.91 t0.66 -2.91 t1.91 -2.07 t2.95 -0.76 q1.14 0 2.01 0.39 t1.33 0.99 l0 -1.14 l2.96 0 l0 11 l-2.96 0 l0 -1.1 z M43.56 12.25 q-0.82 -0.87 -2.2 -0.87 q-1.4 0 -2.21 0.87 t-0.81 2.25 q0 1.34 0.83 2.22 t2.19 0.88 q1.4 0 2.21 -0.83 t0.81 -2.27 q0 -1.38 -0.82 -2.25 z M59.39 10.02 q1.03 1.22 1.03 3.48 l0 6.5 l-3.06 0 l0 -6.5 q0 -2.22 -2.12 -2.22 q-0.82 0 -1.48 0.65 t-0.62 2.25 l0 5.82 l-2.98 0 l0 -11 l2.98 0 l0 0.98 q0.54 -0.54 1.36 -0.86 t1.58 -0.32 q2.28 0 3.31 1.22 z M66.14999999999999 19.74 q-1.37 -0.54 -2.35 -1.83 t-0.98 -3.37 t0.99 -3.36 t2.37 -1.82 t2.62 -0.54 q1.44 0 2.74 0.64 t2.13 1.88 t0.87 2.94 q0 0.52 -0.02 0.9 t-0.04 0.48 l-8.68 0 q0.24 1.16 1.2 1.58 t1.8 0.42 q1.08 0 1.72 -0.39 t1.1 -0.89 l2.32 1.34 q-1.88 2.56 -5.14 2.56 q-1.28 0 -2.65 -0.54 z M66.75999999999999 12.05 q-0.78 0.61 -0.88 1.49 l5.5 0 q-0.06 -0.52 -0.4 -1 t-0.91 -0.79 t-1.29 -0.31 q-1.24 0 -2.02 0.61 z M78.16 24.12 l1.9 -4.52 l-4.72 -10.56 l3.46 0 l2.78 7 l2.56 -7 l3.46 0 l-6.14 15.08 l-3.3 0 z">
        </path>
    </g>
</svg>